<?xml version="1.0" encoding="UTF-8"?>
<!DOCTYPE svg PUBLIC "-//W3C//DTD SVG 1.1//EN" "http://www.w3.org/Graphics/SVG/1.1/DTD/svg11.dtd">
<!-- Creator: CorelDRAW 2018 -->
<svg xmlns="http://www.w3.org/2000/svg" xml:space="preserve" width="1600px" height="1600px" version="1.1" style="shape-rendering:geometricPrecision; text-rendering:geometricPrecision; image-rendering:optimizeQuality; fill-rule:evenodd; clip-rule:evenodd"
viewBox="0 0 85.22 85.22"
 xmlns:xlink="http://www.w3.org/1999/xlink">
 <defs>
  <style type="text/css">
   <![CDATA[
    .fil0 {fill:none}
    .fil1 {fill:#12CA6C}
   ]]>
  </style>
 </defs>
 <g id="Layer_x0020_1">
  <metadata id="CorelCorpID_0Corel-Layer"/>
  <g id="_-1767891336">
   <rect class="fil0" width="85.22" height="85.22"/>
   <path class="fil1" d="M16.32 51c-1.64,0 -3.17,-0.44 -4.49,-1.41l0 4.26c0.03,1.8 -1.34,2.49 -2.76,2.5l0 -12.89c-0.02,-3.92 3.51,-6.67 7.25,-6.67 4.14,0 7.22,2.91 7.22,7.09 0,4.17 -3.09,7.12 -7.22,7.12zm48.72 -12.64c-3.01,4.06 -1.48,10.1 4.93,10.22 1.37,0 2.57,-0.32 3.6,-0.96l0 -3.85c-1.46,0 -2.92,0 -4.39,0 -0.01,-1.13 1.07,-2.46 2.48,-2.46l4.49 0 0 7.53c-1.78,1.47 -4,2.16 -6.3,2.16 -8.06,-0.12 -9.94,-7.71 -13.18,-14.78l-2.21 -2.02c0.3,-0.11 2.83,-1.27 3.45,-1.93 2.52,-2.87 7.04,-2.06 8.73,1.29 2.9,-2.24 6.25,-3.64 9.51,-4.69 0,1.46 -0.01,4.65 0,6.46 0,1.37 -0.81,2.2 -2.58,2.32l0 -5.25c-3.38,1.47 -6.61,3.37 -8.53,5.96zm-3.7 2.16c0.44,-2.07 1.72,-4.03 3.18,-5.45 -0.51,-1.19 -1.76,-2.25 -3.55,-1.94 -1.07,0.24 -1.49,1.07 -2.35,1.65l0.71 0.52c0.19,1.44 1.12,3.85 2.01,5.22zm-49.51 3.13c0,2.76 1.57,4.93 4.49,4.93 2.73,0 4.46,-2.04 4.46,-4.7 0,-2.7 -1.75,-4.67 -4.46,-4.67 -2.64,0 -4.4,1.89 -4.49,4.44zm16.28 -6.73c0,3.82 0,7.63 0,11.45 0,1.81 -1.33,2.48 -2.73,2.47 0,-3.82 0,-7.64 0,-11.46 -0.01,-1.75 1.27,-2.43 2.73,-2.46zm9.1 14.08c-4.16,0 -7.35,-2.89 -7.35,-7.12 0,-4.25 3.18,-7.09 7.35,-7.09 1.7,0 3.44,0.5 4.69,1.7 0.39,0.37 0.73,0.8 1,1.28 -0.89,0.73 -2.11,0.87 -3.66,-0.09 -0.64,-0.33 -1.34,-0.47 -2.06,-0.47 -2.78,0 -4.57,1.98 -4.57,4.67 0,2.74 1.8,4.7 4.57,4.7 0.72,0 1.42,-0.15 2.06,-0.48 1.5,-0.95 2.44,-0.91 3.65,-0.11 -0.27,0.48 -0.6,0.91 -0.99,1.28 -1.25,1.22 -2.98,1.73 -4.69,1.73zm13.08 0c-4.07,0 -7.24,-2.86 -7.24,-7.12 0,-4.16 3.05,-7.09 7.24,-7.09 4.22,0 7.22,2.98 7.22,7.09 0,4.17 -3.08,7.12 -7.22,7.12zm0 -2.42c2.73,0 4.47,-2.04 4.47,-4.7 0,-2.7 -1.75,-4.67 -4.47,-4.67 -2.78,0 -4.49,2.07 -4.49,4.67 0,2.65 1.78,4.7 4.49,4.7z"/>
  </g>
 </g>
</svg>
